<?xml version="1.0" encoding="UTF-8"?>
<svg id="Layer_1" xmlns="http://www.w3.org/2000/svg" version="1.1" viewBox="0 0 595.28 841.89">
  <!-- Generator: Adobe Illustrator 30.3.0, SVG Export Plug-In . SVG Version: 2.1.3 Build 182)  -->
  <defs>
    <style>
      .st0 {
        stroke-width: .92px;
      }

      .st0, .st1, .st2 {
        stroke: #122a4b;
        stroke-miterlimit: 10;
      }

      .st0, .st2 {
        fill: #122a4b;
      }

      .st1 {
        fill: none;
      }

      .st1, .st2 {
        stroke-width: 4.44px;
      }

      .st3 {
        fill: #f26122;
      }
    </style>
  </defs>
  <path class="st0" d="M274.05,347.23l47.39,149.94h-17.24l-15.34-48.88h-43.21l-15.87,48.88h-8.51l48.53-149.94h4.25ZM248.61,438.79h37.14l-18.3-58.05-18.83,58.05Z"/>
  <g>
    <path class="st1" d="M365.5,401.31c-9.39,16.87-30.3,22.72-46.71,13.07-16.41-9.65-22.11-31.15-12.72-48.01,9.39-16.87,30.3-22.72,46.71-13.07,16.41,9.65,22.11,31.15,12.72,48.01Z"/>
    <path class="st3" d="M346.09,390.32c-3.22,5.78-10.39,7.79-16.02,4.48-5.63-3.31-7.58-10.68-4.36-16.47s10.39-7.79,16.02-4.48c5.63,3.31,7.58,10.68,4.36,16.47Z"/>
  </g>
  <polyline class="st2" points="329.81 419.83 330.06 494.95 343.32 495.17 342.83 419.69"/>
</svg>